<svg width="48" height="52" fill="none" xmlns="http://www.w3.org/2000/svg">
  <rect x="6" y="7" width="42" height="42" rx="12" fill="#fff"/>
  <g opacity=".1" fill="#193448">
    <path d="M31.8 5.09c-.43.33-.82.55-1.22.9a150.46 150.46 0 00-3.65 3.3c-1.3 1.23-2.58 2.5-3.87 3.76l-4.81 4.7-5.64 5.44-6.83 6.5-3.43 3.23-1.22 1.15c-.22.21-.22.44 0 .66l.32.28c.76.64 3.57 3.56 4.28 4.3l.79.94c1.16-1.4 2.24-1.8 4.1-1.8 1.02 0 1.76.58 2.23 1.49.44.86.37 1.68-.17 2.47-.19.28-.4.54-.62.8-.6.74-1 1.29-1.48 1.91l1.63 1.95 3.29 3.6c.66.74.68.74 1.39.04 1.66-1.65 3.33-3.28 4.97-4.94a59.5 59.5 0 002.13-2.3A783.86 783.86 0 0138.86 28.9l4.76-4.11a533.52 533.52 0 002.58-2.25c.17-.15.36-.28.52-.45.39-.41-.41-1.33-.54-1.45-.36-.33-.7-.67-1.03-1.03a255.8 255.8 0 01-4-4.63l-.1.13a9.19 9.19 0 01-2.56 2.47c-1.45.84-4.32-1.66-3.86-4 .22-1.17 1.39-2.46 2.55-3.1a2 2 0 00-.1-.12c-.92-1-1.84-1.98-2.74-2.98-.65-.74-1.25-1.34-1.96-2.19-.2-.22-.35-.27-.58-.1zm-9.4 39.34l-.39.36-1.8-1.97.4-.36 1.8 1.97zm-3-3.29l-.4.36-1.8-1.97.4-.36 1.8 1.97zm-3-3.28l-.4.36-1.8-1.97.4-.36 1.8 1.97zm-3-3.28l-.4.36-1.8-1.97.4-.36 1.8 1.97zm-3-3.29l-.4.36-1.8-1.97.4-.36 1.8 1.97zm7.34 1.78l1.31-1.38 4.39-4.67.41-.5-.07-.7a1.57 1.57 0 01.37-1.3c.32-.37.74-.42 1.2-.15.12.06.23.15.34.23l3.43-3.43c.44-.44.86-.9 1.3-1.33.25-.26.44-.24.55.04l-.1.23-.1.12-.43.43-.95.91-1.5 1.5-.72.76-.84.89-.21.24a2.8 2.8 0 00-.05.12l-.02.48c0 .15.05.3.03.44-.09.84-.67 1.24-1.5 1.05l-.33-.12-2.27 2.37-2.7 2.8c-.43.45-.85.88-1.28 1.3-.08.08-.18.13-.28.2-.21-.2-.13-.37.02-.53zm16.39-9.46a1034.31 1034.31 0 00-9.51 9.76c-.12.12-.2.29-.28.43.03.16.05.33.1.48.17.45.15.9-.02 1.34-.26.68-.98.93-1.6.54l-.18-.12-.27-.2-.97.97c-.22.23-.42.49-.65.7-.08.07-.25.11-.33.07-.16-.1-.08-.24.02-.35l1.01-1.12c.25-.28.48-.57.72-.86v-.14c0-.16.02-.32-.02-.47-.25-1.1.84-1.66 1.6-1.44l.2.06c.1-.06.2-.11.27-.19 1.24-1.24 2.48-2.47 3.7-3.73a676.13 676.13 0 004.34-4.5c.52-.54 1.02-1.1 1.54-1.65.1-.1.27-.15.42-.23.13.28.09.46-.1.65zm-4.71-7.41c-.38.35-.77.68-1.14 1.03-.13.12-.24.26-.35.39 0 .18.02.37-.02.54-.07.36-.12.72-.27 1.05-.15.32-.54.42-.91.33l-.56-.16-3.63 3.56-.2.19c-1.58 1.5-3.13 3.02-4.72 4.5-.83.77-1.7 1.49-2.56 2.23l-.11.07c-.22-.23-.23-.3.01-.52l3-2.8 1.62-1.53 5.87-5.62c.15-.14.26-.32.4-.49-.02-.18-.05-.36-.05-.54-.01-.35-.07-.7 0-1.04.16-.78 1.03-1.06 1.66-.56l.26.2c.44-.4.87-.81 1.32-1.2a.82.82 0 01.5-.18c.12 0 .06.37-.12.55z"/>
    <path d="M16.01 38.22l.4-.36-1.8-1.97-.4.36 1.8 1.97zm-6-6.57l.38-.36-1.8-1.97-.4.36L10 31.65zm12 13.13l.4-.36-1.8-1.97-.4.36 1.8 1.97zm-3-3.28l.4-.36-1.8-1.97-.4.36L19 41.5zm-6-6.56l.39-.36-1.8-1.97-.4.36 1.8 1.97zm12.44-15.48l-5.87 5.62a209.99 209.99 0 01-1.63 1.54c-1 .93-2 1.85-2.99 2.79-.24.22-.24.3-.02.52l.11-.07c.86-.74 1.74-1.46 2.57-2.23 1.59-1.49 3.14-3 4.71-4.5l.2-.2 3.64-3.55-.33-.41c-.13.17-.24.35-.4.5zm6.8 5.39a676.13 676.13 0 01-4.33 4.5l-3.7 3.73c-.07.07-.18.12-.26.18l.38.54c.09-.14.16-.31.28-.43a1566.72 1566.72 0 019.5-9.76c.19-.19.23-.37.1-.65-.15.08-.32.12-.42.23l-1.54 1.66zM22.18 35.17z"/>
    <path d="M23.74 33.2c-.74-.22-1.84.35-1.59 1.44.04.15.02.31.02.47v.14a1.22 1.22 0 00.47.79l.18.12c.62.39 1.34.14 1.6-.54.17-.44.18-.89.03-1.34-.06-.15-.08-.32-.11-.48l-.38-.54-.22-.06zm.85-6.15c.82.2 1.4-.21 1.5-1.06.01-.14-.03-.28-.04-.43l.02-.48-.1-.1-.28-.38c-.11-.08-.22-.17-.34-.24-.46-.26-.88-.22-1.2.15a1.57 1.57 0 00-.37 1.31l.07.7.4.41c.11.04.22.1.33.12zm2.86-10.23c-.62-.49-1.5-.2-1.66.57-.06.33 0 .7 0 1.04l.05.54.33.41.56.16c.37.1.76-.01.9-.33.15-.33.21-.7.28-1.05.04-.17.01-.36.02-.54l-.21-.6c-.1-.06-.18-.13-.27-.2z"/>
    <path d="M19.28 32.1l2.7-2.8 2.27-2.37-.4-.4-.41.48a3804.12 3804.12 0 01-4.39 4.67l-1.3 1.38c-.16.17-.24.33-.03.53.1-.06.2-.1.28-.19.43-.42.85-.85 1.28-1.3zm2.9 3.15l-.73.86-1.01 1.12c-.1.11-.18.26-.02.35.08.04.25 0 .33-.06.23-.22.43-.48.65-.7.32-.34.64-.66.97-.98l.27.2a1.22 1.22 0 01-.18-.16 1.21 1.21 0 01-.29-.63zm6.86-19.41c-.45.38-.88.79-1.32 1.19l.2.59.35-.39 1.15-1.03c.18-.18.24-.55.12-.55a.82.82 0 00-.5.19zm-2.92 9.12l.2-.24.85-.9.72-.74 1.5-1.5.95-.92.43-.43.1-.12.1-.23c-.1-.28-.3-.3-.56-.04l-1.29 1.33-3.43 3.43.27.38.16-.02z"/>
    <path d="M26.07 25.08l.05-.12-.16.02.11.1z"/>
  </g>
  <path d="M22.46 31.88zM31.8 1.09c-.43.33-.82.55-1.22.9a150.28 150.28 0 00-3.65 3.3c-1.3 1.23-2.58 2.5-3.87 3.75l-4.81 4.7a1157.8 1157.8 0 01-5.64 5.45l-6.83 6.5-3.43 3.23-1.22 1.15c-.22.21-.22.44 0 .66l.32.28c.76.64 3.57 3.56 4.28 4.3l.79.95c1.16-1.4 2.24-1.81 4.1-1.8 1.02 0 1.76.57 2.23 1.48.44.86.37 1.68-.17 2.47-.19.28-.4.54-.62.8-.6.74-1 1.29-1.48 1.91l1.63 1.95 3.29 3.6c.66.74.68.74 1.39.04 1.66-1.65 3.33-3.28 4.97-4.93a59.5 59.5 0 002.13-2.3 780.94 780.94 0 0114.87-14.59l4.76-4.11 2.58-2.25c.17-.15.36-.28.52-.45.39-.41-.41-1.33-.54-1.45-.36-.33-.7-.67-1.03-1.03a255.8 255.8 0 01-4-4.63l-.1.13a9.2 9.2 0 01-2.56 2.47c-1.45.84-4.32-1.65-3.86-4 .22-1.17 1.39-2.46 2.55-3.1a2 2 0 00-.1-.12c-.92-1-1.84-1.98-2.74-2.98-.65-.74-1.25-1.34-1.96-2.19-.2-.22-.35-.27-.58-.1zm-9.4 39.34l-.39.36-1.8-1.97.4-.36 1.8 1.97zm-3-3.29l-.4.36-1.8-1.97.4-.36 1.8 1.97zm-3-3.28l-.4.36-1.8-1.97.4-.36 1.8 1.97zm-3-3.28l-.4.36-1.8-1.97.4-.36 1.8 1.97zm-3-3.29l-.4.36-1.8-1.97.4-.36 1.8 1.97zm7.34 1.78l1.31-1.38 4.39-4.67.41-.5-.07-.7a1.56 1.56 0 01.37-1.3c.32-.37.74-.42 1.2-.15.12.06.23.15.34.23l3.43-3.43c.44-.44.86-.9 1.3-1.33.25-.26.44-.24.55.04l-.1.23-.1.12-.43.43-.95.91-1.5 1.5-.72.76-.84.89-.21.24a2.8 2.8 0 00-.05.12l-.02.48c0 .15.05.3.03.44-.09.84-.67 1.24-1.5 1.05l-.33-.12-2.27 2.37-2.7 2.8c-.43.45-.85.88-1.28 1.3-.08.08-.18.13-.28.2-.21-.2-.13-.37.02-.53zm16.39-9.46a1034.31 1034.31 0 00-9.51 9.76c-.12.12-.2.29-.28.43.03.16.05.33.1.48.17.45.15.9-.02 1.34-.26.68-.98.93-1.6.54l-.18-.12-.27-.2-.97.97c-.22.23-.42.49-.65.7-.08.07-.25.11-.33.07-.16-.1-.08-.24.02-.35l1.01-1.12c.25-.28.48-.57.72-.86a3.35 3.35 0 010-.08v-.06c0-.16.02-.32-.02-.47-.25-1.1.84-1.66 1.6-1.44l.2.06c.1-.06.2-.11.27-.18 1.24-1.25 2.48-2.48 3.7-3.74a676.13 676.13 0 004.34-4.5c.52-.54 1.02-1.1 1.54-1.65.1-.1.27-.15.42-.23.13.28.09.46-.1.65zm-4.71-7.41c-.38.35-.77.68-1.14 1.03-.13.12-.24.26-.35.39 0 .18.02.37-.02.54-.07.36-.12.72-.27 1.05-.15.32-.54.42-.91.33l-.56-.16-3.63 3.56-.2.19c-1.58 1.5-3.13 3.02-4.72 4.5-.83.77-1.7 1.49-2.56 2.23l-.11.07c-.22-.23-.23-.3.01-.52l3-2.8 1.62-1.53 5.87-5.62c.15-.14.26-.32.4-.49-.02-.18-.05-.36-.05-.54-.01-.35-.07-.7 0-1.04.16-.78 1.03-1.06 1.66-.56l.26.2c.44-.4.87-.81 1.32-1.2a.82.82 0 01.5-.18c.12 0 .06.37-.12.55z" fill="#FBAF17"/>
  <path d="M16.01 34.22l.4-.36-1.8-1.97-.4.36 1.8 1.97zm-6-6.57l.38-.36-1.8-1.97-.4.36L10 27.65zm12 13.13l.4-.36-1.8-1.97-.4.36 1.8 1.97zm-3-3.28l.4-.36-1.8-1.97-.4.36L19 37.5zm-6-6.56l.39-.36-1.8-1.97-.4.36 1.8 1.97zm12.44-15.48l-5.87 5.62a209.99 209.99 0 01-1.63 1.54c-1 .93-2 1.85-2.99 2.79-.24.22-.24.3-.02.52l.11-.07c.86-.74 1.74-1.46 2.57-2.23 1.59-1.49 3.14-3 4.71-4.5l.2-.2 3.64-3.55-.33-.41c-.13.16-.24.35-.4.5zm6.8 5.39a683.7 683.7 0 01-4.33 4.5c-1.22 1.25-2.46 2.48-3.7 3.72-.07.08-.18.13-.26.19l.38.54c.09-.14.16-.31.28-.43a1665.8 1665.8 0 019.5-9.76c.19-.19.23-.37.1-.65-.15.08-.32.13-.42.23l-1.54 1.66z" fill="#fff"/>
  <path d="M22.17 31.17zm0 .08zm1.57-2.05c-.74-.22-1.84.35-1.59 1.44.04.15.02.31.02.47v.14a1.22 1.22 0 00.47.8l.18.11c.62.39 1.34.14 1.6-.54.17-.44.18-.89.03-1.34-.06-.15-.08-.32-.11-.48l-.38-.54-.22-.06z" fill="#127CCB"/>
  <path d="M24.59 23.05c.82.2 1.4-.21 1.5-1.06.01-.14-.03-.28-.04-.43l.02-.48-.1-.1-.28-.38c-.11-.08-.22-.17-.34-.24-.46-.26-.88-.22-1.2.15a1.56 1.56 0 00-.37 1.31l.07.71.4.4c.11.04.22.1.33.12z" fill="#F19020"/>
  <path d="M27.45 12.82c-.62-.49-1.5-.2-1.66.57-.06.33 0 .7 0 1.04l.05.54.33.41.56.16c.37.1.76-.01.9-.33.15-.33.21-.7.28-1.05.04-.17.01-.36.02-.54l-.21-.6-.27-.2z" fill="#127CCB"/>
  <path d="M19.28 28.1a1184 1184 0 004.97-5.17l-.4-.4-.41.48a3868.15 3868.15 0 01-4.39 4.67l-1.3 1.39c-.16.16-.24.32-.03.52.1-.06.2-.1.28-.18l1.28-1.3zm2.9 3.15l-.73.86-1.01 1.12c-.1.11-.18.26-.02.35.08.04.25 0 .33-.06.23-.22.43-.48.65-.7.32-.34.64-.66.97-.98l.27.2a1.22 1.22 0 01-.18-.16 1.21 1.21 0 01-.29-.63zm6.86-19.41c-.45.38-.88.79-1.32 1.19l.2.59.35-.39 1.15-1.03c.18-.18.24-.55.12-.55a.82.82 0 00-.5.19zm-2.92 9.12l.2-.24.85-.9.72-.74 1.5-1.5.95-.92.43-.43.1-.12.1-.23c-.1-.28-.3-.3-.56-.04l-1.29 1.33-3.43 3.43.27.38.16-.02z" fill="#fff"/>
  <path d="M26.07 21.08l.05-.12-.16.02.11.1z" fill="#FCBC89"/>
</svg>
